<svg width="200" height="200" viewBox="0 0 200 200" fill="none" xmlns="http://www.w3.org/2000/svg">
<path d="M67.887 45.5108C68.34 44.6888 69.139 44.2855 69.721 43.9815L98 29.6046C98.643 29.2686 99.25 28.9856 100.012 29.0006C100.772 28.9846 101.44 29.3076 102.026 29.6046L130.28 43.9737C131.264 44.5267 131.759 44.7397 132.124 45.4947C132.388 45.9867 132.466 46.5158 132.397 47.0318L132.379 80.2955C132.538 81.0355 132.389 81.8228 131.826 82.4908C131.463 82.9698 130.945 83.3126 130.365 83.5196L102.131 97.8619C101.553 98.2859 100.82 98.5475 100.012 98.5255C99.203 98.5465 98.473 98.2859 97.893 97.8619L69.659 83.5196C69.081 83.3126 68.565 82.9688 68.2 82.4908C67.638 81.8228 67.487 81.0355 67.647 80.2955L67.631 47.0909C67.545 46.5609 67.617 46.0168 67.887 45.5108Z" fill="url(#paint0_linear_2866_865)"/>
<path d="M34.988 65.3657V110.261L43.592 105.884V73.9717H63.686V65.3667L34.988 65.3657ZM136.334 65.3657H165.029V110.261L156.427 105.884V73.9717H136.333V65.3657H136.334Z" fill="url(#paint1_linear_2866_865)"/>
<path d="M116.274 121.2C116.71 120.411 117.473 120.032 118.03 119.739L145.081 105.984C145.696 105.662 146.28 105.393 147.007 105.407C147.736 105.391 148.374 105.699 148.931 105.984L175.958 119.731C176.901 120.256 177.378 120.463 177.724 121.188C177.98 121.655 178.054 122.163 177.988 122.657L177.972 154.479C178.121 155.188 177.98 155.94 177.441 156.575C177.091 157.034 176.599 157.362 176.043 157.561L149.035 171.282C148.48 171.686 147.781 171.936 147.008 171.917C146.237 171.937 145.535 171.687 144.983 171.282L117.973 157.561C117.416 157.362 116.924 157.034 116.575 156.575C116.036 155.94 115.895 155.188 116.046 154.479L116.03 122.711C115.947 122.206 116.016 121.683 116.274 121.2Z" fill="url(#paint2_linear_2866_865)"/>
<path d="M22.287 121.2C22.723 120.411 23.482 120.032 24.041 119.739L51.094 105.984C51.707 105.662 52.293 105.393 53.018 105.407C53.746 105.391 54.383 105.699 54.944 105.984L81.971 119.731C82.913 120.256 83.389 120.463 83.735 121.188C83.991 121.655 84.065 122.163 83.997 122.657L83.981 154.479C84.131 155.188 83.991 155.94 83.45 156.575C83.102 157.034 82.612 157.362 82.055 157.561L55.043 171.282C54.49 171.686 53.791 171.936 53.02 171.917C52.245 171.937 51.547 171.687 50.993 171.282L23.983 157.561C23.426 157.362 22.932 157.034 22.585 156.575C22.046 155.94 21.905 155.188 22.058 154.479L22.04 122.711C21.957 122.206 22.029 121.683 22.287 121.2Z" fill="url(#paint3_linear_2866_865)"/>
<path d="M177.973 138.168L177.967 154.478C178.117 155.185 177.973 155.939 177.436 156.576C177.086 157.035 176.594 157.363 176.038 157.562L149.03 171.281C148.475 171.687 147.774 171.936 147.003 171.917C146.23 171.937 145.53 171.688 144.976 171.281L117.968 157.562C117.411 157.363 116.919 157.035 116.57 156.576C116.031 155.939 115.89 155.185 116.043 154.478L116.029 131.052C139.633 131.856 161.002 134.406 177.973 138.168Z" fill="url(#paint4_linear_2866_865)"/>
<path d="M83.996 131.052L83.984 154.478C84.134 155.185 83.994 155.939 83.454 156.572C83.105 157.035 82.615 157.363 82.058 157.558L55.048 171.281C54.493 171.687 53.794 171.937 53.023 171.914C52.25 171.937 51.548 171.687 50.996 171.281L23.986 157.558C23.431 157.363 22.935 157.035 22.588 156.572C22.049 155.939 21.908 155.185 22.061 154.478L22.051 138.166C39.022 134.407 60.393 131.852 83.996 131.052Z" fill="url(#paint5_linear_2866_865)"/>
<path d="M84.156 59.3926C84.586 59.3926 84.963 59.7717 84.963 60.2017V67.5537C84.963 67.9797 84.586 68.3584 84.156 68.3584H76.769C76.341 68.3584 75.964 67.9797 75.964 67.5537V60.2017C75.964 59.7717 76.341 59.3926 76.769 59.3926H84.156ZM76.75 80.1567H84.176C84.598 80.1447 84.963 79.7736 84.963 79.3496V71.9995C84.963 71.5695 84.586 71.1948 84.156 71.1948H76.769C76.341 71.1948 75.964 71.5695 75.964 71.9995V79.3496C75.965 79.7736 76.33 80.1447 76.75 80.1567ZM88.133 80.1567H123.106C123.52 80.1447 123.879 79.7836 123.891 79.3716V71.9805C123.879 71.5605 123.506 71.1958 123.084 71.1958H88.152C87.722 71.1958 87.347 71.5705 87.347 72.0005V79.3506C87.348 79.7736 87.711 80.1447 88.133 80.1567ZM123.891 67.5728V60.1816C123.879 59.7616 123.506 59.3926 123.084 59.3926H88.152C87.722 59.3926 87.347 59.7717 87.347 60.2017V67.5537C87.347 67.9797 87.722 68.3584 88.152 68.3584H123.084C123.506 68.3574 123.879 67.9908 123.891 67.5728ZM123.891 55.5454V48.1567C123.879 47.7367 123.506 47.3696 123.084 47.3696H88.152C87.722 47.3696 87.347 47.7468 87.347 48.1768V55.5269C87.347 55.9569 87.722 56.3335 88.152 56.3335H123.084C123.506 56.3325 123.879 55.9674 123.891 55.5454ZM83.352 61.0088H77.577V66.7446H83.351L83.352 61.0088ZM83.352 72.8076H77.577V78.5454H83.351L83.352 72.8076ZM84.156 47.3696C84.586 47.3696 84.965 47.7468 84.965 48.1768V55.5269C84.965 55.9569 84.586 56.3335 84.156 56.3335H76.771C76.341 56.3335 75.964 55.9569 75.964 55.5269V48.1768C75.964 47.7468 76.341 47.3696 76.771 47.3696H84.156ZM122.279 48.9844H88.959V54.7188H122.279V48.9844Z" fill="url(#paint6_linear_2866_865)"/>
<path d="M29.844 155.056H37.272C37.692 155.038 38.057 154.671 38.057 154.247V146.896C38.057 146.468 37.68 146.087 37.252 146.087H29.863C29.443 146.087 29.07 146.454 29.058 146.876V154.266C29.069 154.679 29.43 155.038 29.844 155.056ZM41.227 155.056H76.197C76.619 155.038 76.984 154.671 76.984 154.247V146.896C76.984 146.468 76.607 146.087 76.177 146.087H41.247C40.815 146.087 40.438 146.468 40.438 146.896V154.247C40.44 154.671 40.803 155.038 41.227 155.056ZM29.059 123.054V130.442C29.071 130.862 29.444 131.226 29.864 131.226H37.253C37.681 131.226 38.058 130.851 38.058 130.423V123.073C38.058 122.645 37.681 122.264 37.253 122.264H29.864C29.444 122.265 29.071 122.634 29.059 123.054ZM29.059 135.075V142.466C29.071 142.886 29.444 143.252 29.864 143.252H37.253C37.681 143.252 38.058 142.876 38.058 142.444V135.096C38.058 134.666 37.681 134.291 37.253 134.291H29.864C29.444 134.292 29.071 134.657 29.059 135.075ZM36.444 135.903H30.671V141.641H36.444V135.903ZM76.178 134.292C76.608 134.292 76.985 134.667 76.985 135.097V142.445C76.985 142.877 76.608 143.253 76.178 143.253H41.248C40.816 143.253 40.439 142.877 40.439 142.445V135.097C40.439 134.667 40.816 134.292 41.248 134.292H76.178ZM75.371 147.704H42.053V153.438H75.371V147.704ZM76.178 122.265C76.608 122.265 76.985 122.646 76.985 123.074V130.424C76.985 130.852 76.608 131.227 76.178 131.227H41.248C40.816 131.227 40.439 130.852 40.439 130.424V123.074C40.439 122.646 40.816 122.265 41.248 122.265H76.178ZM75.371 123.879H42.053V129.616H75.371V123.879Z" fill="url(#paint7_linear_2866_865)"/>
<path d="M123.826 155.056H131.252C131.676 155.038 132.041 154.671 132.041 154.247V146.896C132.041 146.468 131.662 146.087 131.232 146.087H123.847C123.421 146.087 123.05 146.454 123.038 146.876V154.266C123.051 154.679 123.411 155.038 123.826 155.056ZM135.209 155.056H170.18C170.6 155.038 170.967 154.671 170.967 154.247V146.896C170.967 146.468 170.588 146.087 170.16 146.087H135.228C134.8 146.087 134.421 146.468 134.421 146.896V154.247C134.422 154.671 134.789 155.038 135.209 155.056ZM123.039 123.054V130.442C123.051 130.862 123.422 131.226 123.848 131.226H131.233C131.663 131.226 132.042 130.851 132.042 130.423V123.073C132.042 122.645 131.663 122.264 131.233 122.264H123.848C123.422 122.265 123.051 122.634 123.039 123.054ZM123.039 135.075V142.466C123.051 142.886 123.422 143.252 123.848 143.252H131.233C131.663 143.252 132.042 142.876 132.042 142.444V135.096C132.042 134.666 131.663 134.291 131.233 134.291H123.848C123.422 134.292 123.051 134.657 123.039 135.075ZM170.16 134.292C170.588 134.292 170.967 134.667 170.967 135.097V142.445C170.967 142.877 170.588 143.253 170.16 143.253H135.228C134.8 143.253 134.421 142.877 134.421 142.445V135.097C134.421 134.667 134.8 134.292 135.228 134.292H170.16ZM169.354 135.903H136.036V141.641H169.354V135.903ZM130.426 147.704H124.653V153.438H130.426V147.704ZM130.426 123.879H124.653V129.616H130.426V123.879ZM170.16 122.265C170.588 122.265 170.967 122.646 170.967 123.074V130.424C170.967 130.852 170.588 131.227 170.16 131.227H135.228C134.8 131.227 134.421 130.852 134.421 130.424V123.074C134.421 122.646 134.8 122.265 135.228 122.265H170.16Z" fill="url(#paint8_linear_2866_865)"/>
<defs>
<linearGradient id="paint0_linear_2866_865" x1="67.4845" y1="63.7627" x2="132.532" y2="63.7627" gradientUnits="userSpaceOnUse">
<stop stop-color="#FF5C9A"/>
<stop offset="1" stop-color="#6F3DD8"/>
</linearGradient>
<linearGradient id="paint1_linear_2866_865" x1="157.85" y1="59.9067" x2="42.1709" y2="115.714" gradientUnits="userSpaceOnUse">
<stop stop-color="#FF5C9A"/>
<stop offset="1" stop-color="#6F3DD8"/>
</linearGradient>
<linearGradient id="paint2_linear_2866_865" x1="115.89" y1="138.661" x2="178.116" y2="138.661" gradientUnits="userSpaceOnUse">
<stop stop-color="#FF5C9A"/>
<stop offset="1" stop-color="#6F3DD8"/>
</linearGradient>
<linearGradient id="paint3_linear_2866_865" x1="21.9013" y1="138.661" x2="84.1262" y2="138.661" gradientUnits="userSpaceOnUse">
<stop stop-color="#FF5C9A"/>
<stop offset="1" stop-color="#6F3DD8"/>
</linearGradient>
<linearGradient id="paint4_linear_2866_865" x1="116.092" y1="139.425" x2="178.875" y2="160.707" gradientUnits="userSpaceOnUse">
<stop stop-color="#2C3CC9"/>
<stop offset="1" stop-color="#8560CF"/>
</linearGradient>
<linearGradient id="paint5_linear_2866_865" x1="25.2699" y1="136.935" x2="85.8952" y2="157.486" gradientUnits="userSpaceOnUse">
<stop stop-color="#2C3CC9"/>
<stop offset="1" stop-color="#8560CF"/>
</linearGradient>
<linearGradient id="paint6_linear_2866_865" x1="75.5801" y1="72.2085" x2="124.28" y2="55.3104" gradientUnits="userSpaceOnUse">
<stop stop-color="#FFB8FF"/>
<stop offset="1" stop-color="#FF81D0"/>
</linearGradient>
<linearGradient id="paint7_linear_2866_865" x1="28.6709" y1="147.104" x2="77.373" y2="130.204" gradientUnits="userSpaceOnUse">
<stop stop-color="#FFB8FF"/>
<stop offset="1" stop-color="#FF81D0"/>
</linearGradient>
<linearGradient id="paint8_linear_2866_865" x1="122.653" y1="147.105" x2="171.355" y2="130.206" gradientUnits="userSpaceOnUse">
<stop stop-color="#FFB8FF"/>
<stop offset="1" stop-color="#FF81D0"/>
</linearGradient>
</defs>
</svg>
